<svg xmlns="http://www.w3.org/2000/svg" viewBox="0 0 658.651 223.748"><defs><style>.a{fill:#fff;}</style></defs><circle class="a" cx="189.81" cy="136.132" r="5.215"/><path class="a" d="M188.774,223.748l-7.85-4.829c-.531-.326-54.514-32.5-117.779-.078l-5.614,2.879-1.07-6.22a67.128,67.128,0,0,1,10.516-48.64C73.7,156.954,82.6,149.412,92.52,143.474c-1.837-1.234-3.775-2.637-5.9-4.268l-.218-.176c-9.168-7.94-15.364-16.468-18.411-25.35-3.3-9.615-1.148-20.124,5.365-26.151,4.277-3.955,10.477-6.145,17.458-6.17h.137c5.41,0,10.531,1.184,15.487,2.329l.718.166c12.859,2.961,27.779,5.958,42.027,3.99,14.572-2.013,25.075-8.66,32.108-20.321,7.407-12.285,9.091-26.169,4.736-39.1-1.259-3.746-4.119-8.407-7.64-12.624a32.222,32.222,0,0,1-6.865,7.2c-10.777,8.2-24.328,9.082-33.8,8.369-8.14-.612-16.052-2.472-23.7-4.27-2.839-.667-5.679-1.336-8.528-1.939-16.508-3.5-30.746-4.174-43.517-2.073-15.08,2.483-28.318,9.145-37.279,18.76-14.129,15.161-18.914,36.543-12.8,57.2,3.678,12.428,18.732,32.163,39.382,44.258l1.508.883c3.971,2.33,7.108,4.171,10.616,6.008l-4.306,8.217c-3.7-1.94-6.924-3.83-11-6.223l-1.5-.88C23.638,137.868,7.286,116.168,3,101.68-4.058,77.845,1.515,53.115,17.905,35.526,28.257,24.418,43.374,16.751,60.464,13.937c13.937-2.292,29.289-1.59,46.947,2.151,2.914.618,5.821,1.3,8.728,1.983,7.642,1.8,14.862,3.493,22.276,4.05,7.868.587,19.018-.056,27.486-6.5a23.468,23.468,0,0,0,7.257-9.429L175.767,0l4.865,4.637c6.515,6.211,11.95,14.192,14.183,20.83,5.238,15.551,3.254,32.188-5.585,46.846-8.453,14.016-21.5,22.333-38.781,24.719-15.808,2.191-31.715-.989-45.38-4.139l-.723-.166c-4.686-1.083-9.005-2.069-13.5-2.091-4.653.016-8.629,1.332-11.194,3.7-3.8,3.514-4.984,10.229-2.891,16.329,2.5,7.281,7.751,14.433,15.608,21.26a83.654,83.654,0,0,0,9.588,6.493c10.609-5.1,21.911-8.78,32.706-11.839,1.591-.452,3.29-.917,5.062-1.4,8.293-2.269,18.422-5.042,26.033-8.822.389-4.229,2.195-11.572,9.713-15.69l1.046-.574,1.194,0c4.091.011,12.184,3,15.029,13.967a35.368,35.368,0,0,1,10.717,5.96c7.487,5.943,13.217,14.936,17.523,27.493l1.07,3.125-2.6,2.034a36.053,36.053,0,0,1-19.279,7.456c-6.192.465-14.767,1.69-17.707,6.944l-8.093-4.531c5.119-9.15,16.779-11.039,25.106-11.665A26.7,26.7,0,0,0,211,147.228c-3.52-9.093-7.893-15.637-13.315-19.94A24.8,24.8,0,0,0,187.8,122.3l-2.863-.645-.847-3.776c-1.106-5.912-3.878-7.718-5.389-8.267-4.113,3.232-3.771,8.953-3.753,9.216l.2,2.916-2.539,1.479c-8.78,4.977-20.787,8.264-30.434,10.905-1.741.477-3.415.934-4.982,1.379a221.789,221.789,0,0,0-24.318,8.208c4.925,2.106,9.976,3.982,14.929,5.821,3.8,1.409,7.594,2.82,11.345,4.326,12.541,5.044,30.354,13.583,40.2,29.449a57.581,57.581,0,0,1,6.928,17.041,54.337,54.337,0,0,1,1.383,10.1c.083,1.195.176,2.533.316,4.119Zm-86.9-74.887c-10.756,5.711-20.375,13.124-27.217,23.208a57.84,57.84,0,0,0-9.766,35.616c51.721-23.753,95.873-8.7,113.17-.69a36.73,36.73,0,0,0-.8-4.485,48.379,48.379,0,0,0-5.787-14.306c-8.415-13.554-24.453-21.179-35.784-25.735-3.674-1.476-7.394-2.857-11.111-4.237A230.35,230.35,0,0,1,101.872,148.861Z"/><path class="a" d="M308.217,77.934h21.871V162.7H308.217v-10q-9.834,12.378-27.635,12.377-16.954,0-29.076-12.97t-12.122-31.789q0-18.818,12.122-31.789T280.582,75.56q17.8,0,27.635,12.377Zm-40.35,59.592q6.612,6.7,16.785,6.7a22.867,22.867,0,0,0,16.869-6.7q6.694-6.695,6.7-17.208t-6.7-17.208a22.882,22.882,0,0,0-16.869-6.7,22.6,22.6,0,0,0-16.785,6.7q-6.612,6.7-6.612,17.208T267.867,137.526Z"/><path class="a" d="M383.493,165.077q-19.162,0-31.958-12.886t-12.8-31.873q0-18.985,12.8-31.874T383.493,75.56a43.944,43.944,0,0,1,22.548,5.934,39.47,39.47,0,0,1,15.428,15.937L402.651,108.45a19.212,19.212,0,0,0-7.715-8.307,22.417,22.417,0,0,0-11.613-3.051,21.916,21.916,0,0,0-16.276,6.526q-6.446,6.53-6.442,16.7,0,10.005,6.442,16.531a21.905,21.905,0,0,0,16.276,6.527,23.233,23.233,0,0,0,11.783-2.968,18.673,18.673,0,0,0,7.714-8.222l18.988,10.85a42.428,42.428,0,0,1-15.767,16.022A43.481,43.481,0,0,1,383.493,165.077Z"/><path class="a" d="M500.813,152.107q-13.058,12.97-31.873,12.97t-31.789-12.97q-12.97-12.97-12.97-31.789t12.97-31.789Q450.12,75.56,468.94,75.56t31.873,12.969q13.053,12.971,13.055,31.789T500.813,152.107Zm-48.233-15a22.036,22.036,0,0,0,16.36,6.612,22.326,22.326,0,0,0,16.445-6.612Q492,130.489,492,120.318t-6.612-16.784a22.326,22.326,0,0,0-16.445-6.612,22.036,22.036,0,0,0-16.36,6.612q-6.53,6.61-6.528,16.784T452.58,137.1Z"/><path class="a" d="M544.383,92.514a22.844,22.844,0,0,1,10.088-12.207,30.758,30.758,0,0,1,15.683-4.069v24.413a25.774,25.774,0,0,0-17.887,4.07q-7.884,5.257-7.884,17.463V162.7h-21.87V77.934h21.87Z"/><path class="a" d="M626.608,75.56q13.9,0,22.973,9.325t9.07,25.769V162.7h-21.87V113.367q0-8.475-4.578-12.969T620,95.9q-8.48,0-13.563,5.256t-5.087,15.768V162.7h-21.87V77.934h21.87v9.494Q609.314,75.563,626.608,75.56Z"/></svg>